<?xml version="1.0" encoding="utf-8"?>
<!-- Generator: Adobe Illustrator 26.0.1, SVG Export Plug-In . SVG Version: 6.00 Build 0)  -->
<svg version="1.1" id="Layer_1" xmlns="http://www.w3.org/2000/svg" xmlns:xlink="http://www.w3.org/1999/xlink" x="0px" y="0px"
	 viewBox="0 0 1000 1000" style="enable-background:new 0 0 1000 1000;" xml:space="preserve">
<style type="text/css">
	.st0{fill:#335CFF;}
	.st1{fill:#FFFFFF;}
</style>
<g>
	<path class="st0" d="M589.92,313.06H410.11c-53.6,0-97.05,43.45-97.05,97.04v179.84c0,53.57,43.45,96.99,97.05,96.99h179.81
		c53.59,0,97.02-43.42,97.02-96.99V410.1C686.94,356.51,643.51,313.06,589.92,313.06z M399.52,423.42
		c7.89-24.41,22.98-39.97,31.36-47.41c0,0,0-0.02,0.05-0.02c10.81-9.35,23.49-16.57,37.42-20.93c0.04,0,0.04,0,0.04,0
		c7.35-2.3,18.28-4.84,31.63-4.84c39.3,0.07,65.59,22.63,70.02,26.56c6.15,5.44,21.51,20.33,29.92,44.88
		c4.2,12.24,5.34,23.13,5.59,30.67c-13.68-2.23-27.35-4.43-41.03-6.63c-0.96-5.69-2.92-12.98-6.97-20.75c0,0-0.82-1.53-1.73-3.06
		c-8.29-13.56-21.3-23.84-36.8-28.54c-2.95-0.89-9.87-2.85-19-2.82c-25.42,0.1-44.14,17.21-44.14,17.21
		c-14.07,12.91-18.35,28.34-19.66,34.28c-13.9,3.68-27.8,7.34-41.72,11.05C394.67,445.02,395.86,434.74,399.52,423.42z
		 M435.48,465.82c0.99,5.71,2.92,13.01,7.02,20.75c0,0,0.79,1.56,1.71,3.09c8.26,13.55,21.32,23.82,36.8,28.54
		c2.96,0.89,9.89,2.82,18.99,2.79c25.42-0.09,44.14-17.21,44.14-17.21c14.08-12.88,18.33-28.31,19.66-34.25
		c13.9-3.71,27.83-7.37,41.75-11.03c-0.2,8.01-1.36,18.3-5.02,29.63c-7.89,24.41-22.98,39.96-31.41,47.41c0,0,0,0.05-0.02,0.05
		c-10.81,9.29-23.47,16.54-37.42,20.87c-0.03,0-0.03,0-0.03,0c-7.36,2.32-18.32,4.87-31.65,4.87c-39.27-0.1-65.56-22.63-70.01-26.56
		c-6.18-5.47-21.54-20.33-29.93-44.89c-4.17-12.26-5.31-23.12-5.56-30.66C408.18,461.43,421.83,463.65,435.48,465.82z
		 M620.21,600.85c-15.5,3.98-28.86,7.57-39.52,10.43c-33.26,8.96-41.64,11.78-51.43,17.02c-13.43,7.17-23.03,15.46-29.01,21.29
		c-0.08,0.08-0.15,0.15-0.25,0.22c-0.07-0.07-0.15-0.14-0.22-0.22c-5.96-5.83-15.56-14.12-29.01-21.29
		c-9.79-5.24-18.13-8.06-51.44-17.02c-10.61-2.86-23.99-6.45-39.52-10.43c-0.25-14.69-0.47-29.33-0.72-44.02
		c16.05,7.22,29.58,11.15,38.73,13.38c27.75,6.77,43.11,4.8,62.37,16.29c9.5,5.67,16,12.27,19.83,16.67
		c3.84-4.4,10.37-11,19.84-16.67c19.29-11.49,34.6-9.52,62.34-16.29c9.15-2.23,22.71-6.16,38.76-13.38
		C620.71,571.52,620.46,586.17,620.21,600.85z"/>
	<path class="st1" d="M605.55,458.51c-0.2,8.01-1.36,18.3-5.02,29.63c-7.89,24.41-22.98,39.96-31.41,47.41c0,0,0,0.05-0.02,0.05
		c-10.81,9.29-23.47,16.54-37.42,20.87c-0.03,0-0.03,0-0.03,0c-7.36,2.32-18.32,4.87-31.65,4.87c-39.27-0.1-65.56-22.63-70.01-26.56
		c-6.18-5.47-21.54-20.33-29.93-44.89c-4.17-12.26-5.31-23.12-5.56-30.66c13.68,2.2,27.33,4.42,40.98,6.6
		c0.99,5.71,2.92,13.01,7.02,20.75c0,0,0.79,1.56,1.71,3.09c8.26,13.55,21.32,23.82,36.8,28.54c2.96,0.89,9.89,2.82,18.99,2.79
		c25.42-0.09,44.14-17.21,44.14-17.21c14.08-12.88,18.33-28.31,19.66-34.25C577.7,465.82,591.63,462.17,605.55,458.51z"/>
	<path class="st1" d="M605.55,452.32c-13.68-2.23-27.35-4.43-41.03-6.63c-0.96-5.69-2.92-12.98-6.97-20.75c0,0-0.82-1.53-1.73-3.06
		c-8.29-13.56-21.3-23.84-36.8-28.54c-2.95-0.89-9.87-2.85-19-2.82c-25.42,0.1-44.14,17.21-44.14,17.21
		c-14.07,12.91-18.35,28.34-19.66,34.28c-13.9,3.68-27.8,7.34-41.72,11.05c0.17-8.04,1.36-18.33,5.02-29.65
		c7.89-24.41,22.98-39.97,31.36-47.41c0,0,0-0.02,0.05-0.02c10.81-9.35,23.49-16.57,37.42-20.93c0.04,0,0.04,0,0.04,0
		c7.35-2.3,18.28-4.84,31.63-4.84c39.3,0.07,65.59,22.63,70.02,26.56c6.15,5.44,21.51,20.33,29.92,44.88
		C604.16,433.9,605.3,444.78,605.55,452.32z"/>
	<path class="st1" d="M620.96,556.83c-0.25,14.69-0.5,29.33-0.75,44.02c-15.5,3.98-28.86,7.57-39.52,10.43
		c-33.26,8.96-41.64,11.78-51.43,17.02c-13.43,7.17-23.03,15.46-29.01,21.29c-0.08,0.08-0.15,0.15-0.25,0.22
		c-0.07-0.07-0.15-0.14-0.22-0.22c-5.96-5.83-15.56-14.12-29.01-21.29c-9.79-5.24-18.13-8.06-51.44-17.02
		c-10.61-2.86-23.99-6.45-39.52-10.43c-0.25-14.69-0.47-29.33-0.72-44.02c16.05,7.22,29.58,11.15,38.73,13.38
		c27.75,6.77,43.11,4.8,62.37,16.29c9.5,5.67,16,12.27,19.83,16.67c3.84-4.4,10.37-11,19.84-16.67
		c19.29-11.49,34.6-9.52,62.34-16.29C591.35,567.99,604.91,564.05,620.96,556.83z"/>
</g>
</svg>
