<?xml version="1.0" encoding="UTF-8"?>
<svg id="Layer_2" data-name="Layer 2" xmlns="http://www.w3.org/2000/svg" viewBox="0 0 196.86 196.86">
  <defs>
    <style>
      .cls-1 {
        fill: #fff;
      }

      .cls-2 {
        fill: #335cff;
      }
    </style>
  </defs>
  <g id="Layer_1-2" data-name="Layer 1">
    <g>
      <path class="cls-2" d="m145.78,0H51.1C22.88,0,0,22.88,0,51.09v94.69c0,28.21,22.88,51.07,51.1,51.07h94.68c28.22,0,51.08-22.86,51.08-51.07V51.09c0-28.22-22.87-51.09-51.08-51.09ZM45.52,58.1c4.15-12.85,12.1-21.05,16.51-24.96,0,0,0-.01.03-.01,5.69-4.92,12.37-8.72,19.7-11.02h.02c3.87-1.21,9.63-2.55,16.65-2.55,20.69.04,34.54,11.92,36.87,13.98,3.24,2.86,11.33,10.7,15.75,23.63,2.21,6.44,2.81,12.18,2.94,16.15-7.2-1.17-14.4-2.33-21.6-3.49-.51-3-1.54-6.83-3.67-10.93,0,0-.43-.81-.91-1.61-4.36-7.14-11.22-12.55-19.38-15.03-1.55-.47-5.2-1.5-10-1.48-13.38.05-23.24,9.06-23.24,9.06-7.41,6.8-9.66,14.92-10.35,18.05-7.32,1.94-14.64,3.86-21.97,5.82.09-4.23.72-9.65,2.64-15.61Zm18.93,22.33c.52,3.01,1.54,6.85,3.7,10.93,0,0,.42.82.9,1.63,4.35,7.13,11.23,12.54,19.38,15.03,1.56.47,5.21,1.48,10,1.47,13.38-.05,23.24-9.06,23.24-9.06,7.41-6.78,9.65-14.91,10.35-18.03,7.32-1.95,14.65-3.88,21.98-5.81-.11,4.22-.72,9.64-2.64,15.6-4.15,12.85-12.1,21.04-16.54,24.96,0,0,0,.03-.01.03-5.69,4.89-12.36,8.71-19.7,10.99h-.02c-3.88,1.22-9.65,2.56-16.66,2.56-20.68-.05-34.52-11.92-36.86-13.98-3.25-2.88-11.34-10.7-15.76-23.64-2.2-6.46-2.8-12.17-2.93-16.14,7.2,1.16,14.39,2.33,21.58,3.48Zm97.27,71.1c-8.16,2.1-15.2,3.99-20.81,5.49-17.51,4.72-21.92,6.2-27.08,8.96-7.07,3.78-12.13,8.14-15.27,11.21-.04.04-.08.08-.13.12-.04-.04-.08-.07-.12-.12-3.14-3.07-8.19-7.43-15.27-11.21-5.15-2.76-9.55-4.24-27.08-8.96-5.59-1.51-12.63-3.4-20.81-5.49-.13-7.73-.25-15.44-.38-23.18,8.45,3.8,15.57,5.87,20.39,7.05,14.61,3.56,22.7,2.53,32.84,8.58,5,2.99,8.42,6.46,10.44,8.78,2.02-2.32,5.46-5.79,10.45-8.78,10.16-6.05,18.22-5.01,32.82-8.58,4.82-1.17,11.96-3.24,20.41-7.05-.13,7.73-.26,15.44-.39,23.18Z"/>
      <path class="cls-1" d="m154.01,73.33c-7.2-1.17-14.4-2.33-21.6-3.49-.51-3-1.54-6.83-3.67-10.93,0,0-.43-.81-.91-1.61-4.36-7.14-11.22-12.55-19.38-15.03-1.55-.47-5.2-1.5-10-1.48-13.38.05-23.24,9.06-23.24,9.06-7.41,6.8-9.66,14.92-10.35,18.05-7.32,1.94-14.64,3.86-21.97,5.82.09-4.23.72-9.65,2.64-15.61,4.15-12.85,12.1-21.05,16.51-24.96,0,0,0-.01.03-.01,5.69-4.92,12.37-8.72,19.7-11.02h.02c3.87-1.21,9.63-2.55,16.65-2.55,20.69.04,34.54,11.92,36.87,13.98,3.24,2.86,11.33,10.7,15.75,23.63,2.21,6.44,2.81,12.18,2.94,16.15Z"/>
      <path class="cls-1" d="m154.01,76.58c-.11,4.22-.72,9.64-2.64,15.6-4.15,12.85-12.1,21.04-16.54,24.96,0,0,0,.03-.01.03-5.69,4.89-12.36,8.71-19.7,10.99h-.02c-3.88,1.22-9.65,2.56-16.66,2.56-20.68-.05-34.52-11.92-36.86-13.98-3.25-2.88-11.34-10.7-15.76-23.64-2.2-6.46-2.8-12.17-2.93-16.14,7.2,1.16,14.39,2.33,21.58,3.48.52,3.01,1.54,6.85,3.7,10.93,0,0,.42.82.9,1.63,4.35,7.13,11.23,12.54,19.38,15.03,1.56.47,5.21,1.48,10,1.47,13.38-.05,23.24-9.06,23.24-9.06,7.41-6.78,9.65-14.91,10.35-18.03,7.32-1.95,14.65-3.88,21.98-5.81Z"/>
      <path class="cls-1" d="m162.12,128.35c-.13,7.73-.26,15.44-.39,23.18-8.16,2.1-15.2,3.99-20.81,5.49-17.51,4.72-21.92,6.2-27.08,8.96-7.07,3.78-12.13,8.14-15.27,11.21-.04.04-.08.08-.13.12-.04-.04-.08-.07-.12-.12-3.14-3.07-8.19-7.43-15.27-11.21-5.15-2.76-9.55-4.24-27.08-8.96-5.59-1.51-12.63-3.4-20.81-5.49-.13-7.73-.25-15.44-.38-23.18,8.45,3.8,15.57,5.87,20.39,7.05,14.61,3.56,22.7,2.53,32.84,8.58,5,2.99,8.42,6.46,10.44,8.78,2.02-2.32,5.46-5.79,10.45-8.78,10.16-6.05,18.22-5.01,32.82-8.58,4.82-1.17,11.96-3.24,20.41-7.05Z"/>
    </g>
  </g>
</svg>